<svg width="155" height="199" viewBox="0 0 155 199" fill="none" xmlns="http://www.w3.org/2000/svg">
<rect y="13" width="155" height="155" rx="50" fill="#AD8755"/>
<path d="M81.625 85H74.0625C70.8542 85 68.5417 84.1875 67.125 82.5625C65.7083 80.8958 65 78.7083 65 76C65 70 69.4792 67 78.4375 67C86.8542 67 93.1875 68.25 97.4375 70.75L93.8125 73.5C90.8958 72.1667 85.7708 71.5 78.4375 71.5C74.8542 71.5 72.4375 71.8958 71.1875 72.6875C69.9792 73.4792 69.375 74.5833 69.375 76C69.375 77.4167 69.7083 78.5208 70.375 79.3125C71.0417 80.1042 72.2708 80.5 74.0625 80.5H81.8125C87.4375 80.5 92.5 81.4583 97 83.375C101.542 85.2917 105.271 87.9167 108.188 91.25C111.104 94.5417 113.333 98.3542 114.875 102.688C116.417 106.979 117.188 111.583 117.188 116.5C117.188 120.5 116.625 124.292 115.5 127.875C114.375 131.458 112.667 134.75 110.375 137.75C108.125 140.75 105.396 143.354 102.188 145.562C99.0208 147.729 95.2292 149.417 90.8125 150.625C86.4375 151.875 81.6875 152.5 76.5625 152.5C68.5208 152.5 60.9792 151.271 53.9375 148.812C46.9375 146.396 41.1042 143 36.4375 138.625L40.0625 135.938C44.3125 139.771 49.625 142.75 56 144.875C62.4167 146.958 69.2708 148 76.5625 148C82.2708 148 87.4167 147.188 92 145.562C96.625 143.896 100.417 141.625 103.375 138.75C106.375 135.875 108.667 132.542 110.25 128.75C111.875 124.958 112.688 120.875 112.688 116.5C112.688 110.708 111.521 105.479 109.188 100.812C106.854 96.1042 103.292 92.2917 98.5 89.375C93.75 86.4583 88.125 85 81.625 85ZM74.0625 89.5H81.1875C89.6458 89.5 96.25 92.0833 101 97.25C105.792 102.417 108.188 108.833 108.188 116.5C108.188 124.292 105.417 130.75 99.875 135.875C94.3333 140.958 86.5625 143.5 76.5625 143.5C69.8958 143.5 63.6667 142.583 57.875 140.75C52.0833 138.917 47.2708 136.333 43.4375 133L46.9375 130.188C50.3542 132.979 54.6458 135.146 59.8125 136.688C65.0208 138.229 70.6042 139 76.5625 139C85.3542 139 92.0625 136.896 96.6875 132.688C101.354 128.479 103.688 123.083 103.688 116.5C103.688 110 101.729 104.625 97.8125 100.375C93.9375 96.125 88.375 94 81.125 94H74.0625C67.9792 94 63.4167 92.3333 60.375 89C57.3333 85.6667 55.8125 81.3333 55.8125 76C55.8125 70.6667 57.6875 66.3333 61.4375 63C65.2292 59.6667 70.8958 58 78.4375 58C83.7292 58 88.6458 58.625 93.1875 59.875C97.7292 61.0833 101.479 62.8333 104.438 65.125L100.875 67.875C95.6667 64.2917 88.1875 62.5 78.4375 62.5C72.1458 62.5 67.5417 63.75 64.625 66.25C61.75 68.7083 60.3125 71.9583 60.3125 76C60.3125 80.0833 61.375 83.3542 63.5 85.8125C65.6667 88.2708 69.1875 89.5 74.0625 89.5ZM74.0625 98.5H80.9375C87.0208 98.5 91.5833 100.188 94.625 103.562C97.6667 106.938 99.1875 111.25 99.1875 116.5C99.1875 121.833 97.2917 126.167 93.5 129.5C89.75 132.833 84.1042 134.5 76.5625 134.5C71.2708 134.5 66.3333 133.896 61.75 132.688C57.2083 131.438 53.4583 129.667 50.5 127.375L54.0625 124.625C59.2708 128.208 66.7708 130 76.5625 130C82.8542 130 87.4375 128.771 90.3125 126.312C93.2292 123.812 94.6875 120.542 94.6875 116.5C94.6875 112.458 93.6042 109.208 91.4375 106.75C89.2708 104.25 85.75 103 80.875 103H74.0625C65.5208 103 58.8333 100.458 54 95.375C49.2083 90.25 46.8125 83.7917 46.8125 76C46.8125 68.2083 49.5833 61.7708 55.125 56.6875C60.6667 51.5625 68.4375 49 78.4375 49C85.1042 49 91.3125 49.9167 97.0625 51.75C102.854 53.5833 107.667 56.1667 111.5 59.5L108 62.3125C104.583 59.5208 100.292 57.3542 95.125 55.8125C89.9583 54.2708 84.3958 53.5 78.4375 53.5C69.6458 53.5 62.9167 55.6042 58.25 59.8125C53.625 64.0208 51.3125 69.4167 51.3125 76C51.3125 82.5417 53.2708 87.9375 57.1875 92.1875C61.1042 96.3958 66.7292 98.5 74.0625 98.5ZM74.0625 107.5H80.9375C84.1458 107.5 86.4583 108.333 87.875 110C89.2917 111.667 90 113.833 90 116.5C90 122.5 85.5208 125.5 76.5625 125.5C68.1042 125.5 61.75 124.25 57.5 121.75L61.125 119C64.0417 120.333 69.1875 121 76.5625 121C80.1458 121 82.5417 120.604 83.75 119.812C85 119.021 85.625 117.917 85.625 116.5C85.625 115.125 85.2708 114.042 84.5625 113.25C83.8958 112.417 82.6458 112 80.8125 112H74.0625C68.3125 112 63.1042 111.062 58.4375 109.188C53.8125 107.312 50 104.729 47 101.438C44.0417 98.1458 41.7708 94.3333 40.1875 90C38.6042 85.6667 37.8125 81 37.8125 76C37.8125 72 38.375 68.2083 39.5 64.625C40.625 61.0417 42.3125 57.75 44.5625 54.75C46.8542 51.75 49.5833 49.1667 52.75 47C55.9583 44.7917 59.75 43.0833 64.125 41.875C68.5417 40.625 73.3125 40 78.4375 40C86.4792 40 94 41.2292 101 43.6875C108 46.1042 113.833 49.5 118.5 53.875L114.875 56.5625C110.625 52.7292 105.312 49.7708 98.9375 47.6875C92.5625 45.5625 85.7292 44.5 78.4375 44.5C72.7292 44.5 67.5625 45.3333 62.9375 47C58.3542 48.625 54.5625 50.875 51.5625 53.75C48.6042 56.625 46.3125 59.9583 44.6875 63.75C43.1042 67.5417 42.3125 71.625 42.3125 76C42.3125 81.875 43.5 87.1667 45.875 91.875C48.25 96.5833 51.875 100.375 56.75 103.25C61.625 106.083 67.3958 107.5 74.0625 107.5Z" fill="white"/>
</svg>
