<svg width="88" height="199" viewBox="0 0 88 199" fill="none" xmlns="http://www.w3.org/2000/svg">
<path d="M47.625 85H40.0625C36.8542 85 34.5417 84.1875 33.125 82.5625C31.7083 80.8958 31 78.7083 31 76C31 70 35.4792 67 44.4375 67C52.8542 67 59.1875 68.25 63.4375 70.75L59.8125 73.5C56.8958 72.1667 51.7708 71.5 44.4375 71.5C40.8542 71.5 38.4375 71.8958 37.1875 72.6875C35.9792 73.4792 35.375 74.5833 35.375 76C35.375 77.4167 35.7083 78.5208 36.375 79.3125C37.0417 80.1042 38.2708 80.5 40.0625 80.5H47.8125C53.4375 80.5 58.5 81.4583 63 83.375C67.5417 85.2917 71.2708 87.9167 74.1875 91.25C77.1042 94.5417 79.3333 98.3542 80.875 102.688C82.4167 106.979 83.1875 111.583 83.1875 116.5C83.1875 120.5 82.625 124.292 81.5 127.875C80.375 131.458 78.6667 134.75 76.375 137.75C74.125 140.75 71.3958 143.354 68.1875 145.562C65.0208 147.729 61.2292 149.417 56.8125 150.625C52.4375 151.875 47.6875 152.5 42.5625 152.5C34.5208 152.5 26.9792 151.271 19.9375 148.812C12.9375 146.396 7.10417 143 2.4375 138.625L6.0625 135.938C10.3125 139.771 15.625 142.75 22 144.875C28.4167 146.958 35.2708 148 42.5625 148C48.2708 148 53.4167 147.188 58 145.562C62.625 143.896 66.4167 141.625 69.375 138.75C72.375 135.875 74.6667 132.542 76.25 128.75C77.875 124.958 78.6875 120.875 78.6875 116.5C78.6875 110.708 77.5208 105.479 75.1875 100.812C72.8542 96.1042 69.2917 92.2917 64.5 89.375C59.75 86.4583 54.125 85 47.625 85ZM40.0625 89.5H47.1875C55.6458 89.5 62.25 92.0833 67 97.25C71.7917 102.417 74.1875 108.833 74.1875 116.5C74.1875 124.292 71.4167 130.75 65.875 135.875C60.3333 140.958 52.5625 143.5 42.5625 143.5C35.8958 143.5 29.6667 142.583 23.875 140.75C18.0833 138.917 13.2708 136.333 9.4375 133L12.9375 130.188C16.3542 132.979 20.6458 135.146 25.8125 136.688C31.0208 138.229 36.6042 139 42.5625 139C51.3542 139 58.0625 136.896 62.6875 132.688C67.3542 128.479 69.6875 123.083 69.6875 116.5C69.6875 110 67.7292 104.625 63.8125 100.375C59.9375 96.125 54.375 94 47.125 94H40.0625C33.9792 94 29.4167 92.3333 26.375 89C23.3333 85.6667 21.8125 81.3333 21.8125 76C21.8125 70.6667 23.6875 66.3333 27.4375 63C31.2292 59.6667 36.8958 58 44.4375 58C49.7292 58 54.6458 58.625 59.1875 59.875C63.7292 61.0833 67.4792 62.8333 70.4375 65.125L66.875 67.875C61.6667 64.2917 54.1875 62.5 44.4375 62.5C38.1458 62.5 33.5417 63.75 30.625 66.25C27.75 68.7083 26.3125 71.9583 26.3125 76C26.3125 80.0833 27.375 83.3542 29.5 85.8125C31.6667 88.2708 35.1875 89.5 40.0625 89.5ZM40.0625 98.5H46.9375C53.0208 98.5 57.5833 100.188 60.625 103.562C63.6667 106.938 65.1875 111.25 65.1875 116.5C65.1875 121.833 63.2917 126.167 59.5 129.5C55.75 132.833 50.1042 134.5 42.5625 134.5C37.2708 134.5 32.3333 133.896 27.75 132.688C23.2083 131.438 19.4583 129.667 16.5 127.375L20.0625 124.625C25.2708 128.208 32.7708 130 42.5625 130C48.8542 130 53.4375 128.771 56.3125 126.312C59.2292 123.812 60.6875 120.542 60.6875 116.5C60.6875 112.458 59.6042 109.208 57.4375 106.75C55.2708 104.25 51.75 103 46.875 103H40.0625C31.5208 103 24.8333 100.458 20 95.375C15.2083 90.25 12.8125 83.7917 12.8125 76C12.8125 68.2083 15.5833 61.7708 21.125 56.6875C26.6667 51.5625 34.4375 49 44.4375 49C51.1042 49 57.3125 49.9167 63.0625 51.75C68.8542 53.5833 73.6667 56.1667 77.5 59.5L74 62.3125C70.5833 59.5208 66.2917 57.3542 61.125 55.8125C55.9583 54.2708 50.3958 53.5 44.4375 53.5C35.6458 53.5 28.9167 55.6042 24.25 59.8125C19.625 64.0208 17.3125 69.4167 17.3125 76C17.3125 82.5417 19.2708 87.9375 23.1875 92.1875C27.1042 96.3958 32.7292 98.5 40.0625 98.5ZM40.0625 107.5H46.9375C50.1458 107.5 52.4583 108.333 53.875 110C55.2917 111.667 56 113.833 56 116.5C56 122.5 51.5208 125.5 42.5625 125.5C34.1042 125.5 27.75 124.25 23.5 121.75L27.125 119C30.0417 120.333 35.1875 121 42.5625 121C46.1458 121 48.5417 120.604 49.75 119.812C51 119.021 51.625 117.917 51.625 116.5C51.625 115.125 51.2708 114.042 50.5625 113.25C49.8958 112.417 48.6458 112 46.8125 112H40.0625C34.3125 112 29.1042 111.062 24.4375 109.188C19.8125 107.312 16 104.729 13 101.438C10.0417 98.1458 7.77083 94.3333 6.1875 90C4.60417 85.6667 3.8125 81 3.8125 76C3.8125 72 4.375 68.2083 5.5 64.625C6.625 61.0417 8.3125 57.75 10.5625 54.75C12.8542 51.75 15.5833 49.1667 18.75 47C21.9583 44.7917 25.75 43.0833 30.125 41.875C34.5417 40.625 39.3125 40 44.4375 40C52.4792 40 60 41.2292 67 43.6875C74 46.1042 79.8333 49.5 84.5 53.875L80.875 56.5625C76.625 52.7292 71.3125 49.7708 64.9375 47.6875C58.5625 45.5625 51.7292 44.5 44.4375 44.5C38.7292 44.5 33.5625 45.3333 28.9375 47C24.3542 48.625 20.5625 50.875 17.5625 53.75C14.6042 56.625 12.3125 59.9583 10.6875 63.75C9.10417 67.5417 8.3125 71.625 8.3125 76C8.3125 81.875 9.5 87.1667 11.875 91.875C14.25 96.5833 17.875 100.375 22.75 103.25C27.625 106.083 33.3958 107.5 40.0625 107.5Z" fill="#AD8755"/>
</svg>
